<svg xmlns="http://www.w3.org/2000/svg" viewBox="0 0 100 100">
  <path d="M49.97281 5C25.191755 5 5 25.191756 5 49.97281 5 74.753863 25.191755 95 49.97281 95 74.753863 95 95 74.753863 95 49.97281 95 25.191756 74.753863 5 49.97281 5zm0 11.800604c18.385899 0 33.172205 14.786306 33.172205 33.172206 0 18.385899-14.786306 33.172205-33.172205 33.172205S16.800605 68.358709 16.800605 49.97281c0-18.3859 14.786306-33.172206 33.172205-33.172206zM34.583081 30.450151a5.4821193 5.4821193 0 0 0-3.262839 9.407855L41.81571 50.353474 31.320242 60.848943a5.4987699 5.49877 0 1 0 7.776435 7.776434l10.495468-10.495468 10.495468 10.495468a5.4821193 5.4821193 0 1 0 7.722055-7.776434L57.3142 50.353474l10.495468-10.495468a5.4821193 5.4821193 0 0 0-3.969788-9.407855 5.4821193 5.4821193 0 0 0-3.752267 1.6858L49.592145 42.63142 39.096677 32.135951a5.4821193 5.4821193 0 0 0-3.969788-1.6858 5.4821193 5.4821193 0 0 0-.543808 0z" style="text-indent:0;text-transform:none;block-progression:tb" overflow="visible" color="#000"/>
</svg>
