<svg xmlns="http://www.w3.org/2000/svg" viewBox="0 0 56.7 56.7">
  <circle cx="25.8" cy="48.2" r="2.8" fill="none" stroke=" #f11e22" stroke-width="2" stroke-miterlimit="10" stroke-linecap="round" stroke-linejoin="round"/>
  <path fill="none" stroke=" #f11e22" stroke-width="2" stroke-miterlimit="10" d="M14.7 19.3c0-1.8.4-3.6 1-5.2.7-1.7 1.7-3.2 2.9-4.4 1.3-1.3 2.8-2.3 4.4-2.9 1.6-.7 3.4-1 5.2-1s3.6.4 5.2 1c1.7.7 3.2 1.7 4.4 2.9 1.3 1.3 2.3 2.8 2.9 4.4.7 1.6 1 3.4 1 5.2 0 1.8-.4 3.6-1 5.2-.7 1.7-1.7 3.2-2.9 4.4-1.3 1.3-2.8 2.3-4.4 2.9-1 .4-1.8 1-2.6 1.7-.7.7-1.3 1.6-1.7 2.6-.4.9-.6 2-.6 3 0 1.6-1.3 2.8-2.8 2.8-1.6 0-2.8-1.3-2.8-2.8 0-1.8.4-3.6 1-5.2.7-1.7 1.7-3.2 2.9-4.4 1.3-1.3 2.8-2.3 4.4-2.9 1-.4 1.8-1 2.6-1.7.7-.7 1.3-1.6 1.7-2.6.4-.9.6-2 .6-3s-.2-2.1-.6-3c-.4-1-1-1.8-1.7-2.6-.7-.7-1.6-1.3-2.6-1.7-.9-.4-2-.6-3-.6-1.1 0-2.1.2-3 .6-1 .4-1.8 1-2.6 1.7-.7.7-1.3 1.6-1.7 2.6-.4.9-.6 2-.6 3 0 1.6-1.3 2.8-2.8 2.8-1.5 0-2.8-1.3-2.8-2.8z" stroke-linecap="round" stroke-linejoin="round"/>
</svg>
