<svg width="54" height="72" viewBox="0 0 54 72" xmlns="http://www.w3.org/2000/svg"><title>Group 2</title><g fill="none" fill-rule="evenodd"><g fill=" #f11e22"><path d="M0 1.983v-.1c0 .06.01.11.01.17-.01-.02-.01-.04-.01-.07zM.1 1.393c-.06.15-.1.32-.1.49 0-.08.01-.16.02-.24 0-.02.01-.04.01-.06.01-.06.03-.12.06-.18.01 0 .01-.01.01-.01zM.35 1.013c.01-.01.01-.01.02-.01-.06.05-.11.11-.16.18.03-.05.07-.1.11-.14.01-.01.01-.02.03-.03zM.41.953c.04-.04.09-.07.13-.1-.06.04-.12.09-.17.15.01-.01.01-.01.01-.02l.01-.01C.4.963.4.953.41.953zM1.5.663c.08.01.16.03.23.07-.31-.11-.66-.11-.96 0 .07-.03.14-.05.21-.07H1c.06-.02.12-.03.18-.03h.07c.09 0 .17.01.25.03zM2.08.953c.02.01.04.02.05.04v.01c-.01-.02-.03-.03-.05-.05zM51.92.953c-.02.02-.04.03-.05.05v-.01c.01-.02.03-.03.05-.04zM53.23.733c-.3-.11-.65-.11-.96 0 .07-.04.15-.06.23-.07.08-.02.16-.03.25-.03h.07c.06 0 .12.01.18.03h.02c.07.02.14.04.21.07zM53.68 1.043c-.04-.04-.08-.08-.13-.12.03.02.06.04.09.07l.02.02c.01.01.02.02.02.03zM53.97 1.573v.04c0-.01 0-.02-.01-.03-.02-.07-.04-.13-.06-.19.01.01.01.03.02.04.02.04.04.09.05.14zM53.98 1.643v.05c0-.03-.01-.06-.01-.08 0 .01.01.02.01.03z"/><path d="M53.99 1.773c0-.03 0-.05-.01-.08 0-.03-.01-.06-.01-.08 0-.01 0-.02-.01-.03-.02-.07-.04-.13-.06-.19v-.01c-.03-.07-.07-.13-.11-.2-.03-.05-.07-.1-.11-.14-.04-.04-.08-.08-.13-.12-.02-.02-.04-.03-.06-.04-.08-.07-.16-.11-.25-.15h-.01c-.3-.11-.65-.11-.96 0 0 .01 0 .01-.01 0l-1.81.61c-8.57 2.94-13.28 4.55-23.43 4.55-10.18 0-14.93-1.62-23.55-4.57L1.74.733c-.01.01-.01.01-.01 0-.31-.11-.66-.11-.96 0H.76c-.07.03-.13.07-.2.11-.01 0-.01 0-.02.01-.06.04-.12.09-.17.15-.06.05-.11.11-.16.18-.05.07-.08.14-.11.21-.06.15-.1.32-.1.49 0 .06.01.11.01.17-.01-.02-.01-.04-.01-.07l.01 51.21c0 .42.21.82.56 1.05l25.76 16.92c.21.14.45.21.69.21.24 0 .48-.07.69-.21l25.72-16.92c.35-.24.56-.63.56-1.05L54 1.973v-.09c0-.04 0-.07-.01-.11zM2.13.993v.01c-.01-.02-.03-.03-.05-.05.02.01.04.02.05.04zm49.36 51.53l-24.47 16.1-24.51-16.1-.01-48.89.16.05c8.88 3.04 13.76 4.71 24.36 4.71 10.56 0 15.42-1.66 24.24-4.68l.24-.08-.01 48.89zm.38-51.52v-.01c.01-.02.03-.03.05-.04-.02.02-.04.03-.05.05z"/><path d="M0 1.883c0 .06.01.11.01.17-.01-.02-.01-.04-.01-.07v-.1zM1.5.663c.08.01.16.03.23.07-.31-.11-.66-.11-.96 0 .07-.03.14-.05.21-.07H1c.08-.02.16-.03.25-.03s.17.01.25.03zM53.23.733c-.3-.11-.65-.11-.96 0 .07-.04.15-.06.23-.07.08-.02.16-.03.25-.03s.17.01.25.03h.02c.07.02.14.04.21.07zM51.92.953c-.02.02-.04.03-.05.05v-.01c.01-.02.03-.03.05-.04zM53.68 1.043c-.04-.04-.08-.08-.13-.12.03.02.06.04.09.07l.02.02c.01.01.02.02.02.03zM53.96 1.583c-.02-.07-.04-.13-.06-.19.01.01.01.03.02.04.01.05.03.1.04.15zM53.98 1.643v.05c0-.03-.01-.06-.01-.08 0 .01.01.02.01.03z"/><path d="M.09 1.403c.01 0 .01-.01.01-.01-.06.15-.1.32-.1.49 0-.08.01-.16.02-.24.02-.08.04-.16.07-.24zM.41.953c.04-.04.09-.07.13-.1-.06.04-.12.09-.17.15-.06.05-.11.11-.16.18.03-.05.07-.1.11-.14.01-.01.01-.02.03-.03 0-.01 0-.01.01-.02s.01-.01.02-.01l.01-.01C.4.963.4.953.41.953zM2.13.993v.01c-.01-.02-.03-.03-.05-.05.02.01.04.02.05.04z"/></g><path d="M33.81 48.496c-.13.752-.336 1.93-.564 2.504h-1.603v-2.07c0-.573-.464-1.037-1.036-1.037-.572 0-1.036.464-1.036 1.036V51h-4.14v-2.07c0-.573-.465-1.037-1.037-1.037-.572 0-1.036.464-1.036 1.036V51h-1.603c-.228-.574-.433-1.752-.564-2.504-.424-2.44-1.002-5.782-4.047-5.782h-2.02c-.052-.39-.052-1.046-.052-1.553 0-1.472-.612-2.415-1.105-3.175C13.447 37.19 13 36.5 13 34.688 13 27.218 18.962 22 27.5 22S42 27.218 42 34.688c0 1.812-.447 2.502-.965 3.297-.493.76-1.106 1.703-1.106 3.176 0 .508 0 1.163-.053 1.554h-2.02c-3.045 0-3.623 3.342-4.047 5.782z" stroke=" #f11e22" stroke-width="2"/><path d="M21.286 34.43c1.14 0 2.07.93 2.07 2.07 0 1.14-.93 2.07-2.07 2.07-1.142 0-2.072-.93-2.072-2.07 0-1.14.93-2.07 2.072-2.07zm0-2.073c-2.29 0-4.143 1.854-4.143 4.143 0 2.29 1.854 4.143 4.143 4.143 2.29 0 4.143-1.854 4.143-4.143 0-2.29-1.855-4.143-4.144-4.143zM33.714 34.43c1.142 0 2.072.93 2.072 2.07 0 1.14-.93 2.07-2.072 2.07-1.14 0-2.07-.93-2.07-2.07 0-1.14.93-2.07 2.07-2.07zm0-2.073c-2.29 0-4.143 1.854-4.143 4.143 0 2.29 1.855 4.143 4.144 4.143 2.29 0 4.143-1.854 4.143-4.143 0-2.29-1.854-4.143-4.143-4.143zM27.5 43.077c-.777 0-1.036-.363-1.036-.363s.26-2.07 1.036-2.07c.777 0 1.036 2.07 1.036 2.07s-.26.363-1.036.363zm0-4.506c-2.07 0-3.107 4.144-3.107 5.18 0 1.036 3.107 1.036 3.107 1.036s3.107 0 3.107-1.036-1.036-5.18-3.107-5.18z" fill=" #f11e22"/></g></svg>