<svg width="50" height="68" viewBox="0 0 54 72" xmlns="http://www.w3.org/2000/svg"><title>noun_122718_cc</title><g fill=" #f11e22" fill-rule="evenodd"><path d="M0 1.983v-.1c0 .06.01.11.01.17-.01-.02-.01-.04-.01-.07zM.1 1.393c-.06.15-.1.32-.1.49 0-.08.01-.16.02-.24 0-.02.01-.04.01-.06.01-.06.03-.12.06-.18.01 0 .01-.01.01-.01zM.35 1.013c.01-.01.01-.01.02-.01-.06.05-.11.11-.16.18.03-.05.07-.1.11-.14.01-.01.01-.02.03-.03zM.41.953c.04-.04.09-.07.13-.1-.06.04-.12.09-.17.15.01-.01.01-.01.01-.02l.01-.01C.4.963.4.953.41.953zM1.5.663c.08.01.16.03.23.07-.31-.11-.66-.11-.96 0 .07-.03.14-.05.21-.07H1c.06-.02.12-.03.18-.03h.07c.09 0 .17.01.25.03zM2.08.953c.02.01.04.02.05.04v.01c-.01-.02-.03-.03-.05-.05zM51.92.953c-.02.02-.04.03-.05.05v-.01c.01-.02.03-.03.05-.04zM53.23.733c-.3-.11-.65-.11-.96 0 .07-.04.15-.06.23-.07.08-.02.16-.03.25-.03h.07c.06 0 .12.01.18.03h.02c.07.02.14.04.21.07zM53.68 1.043c-.04-.04-.08-.08-.13-.12.03.02.06.04.09.07l.02.02c.01.01.02.02.02.03zM53.97 1.573v.04c0-.01 0-.02-.01-.03-.02-.07-.04-.13-.06-.19.01.01.01.03.02.04.02.04.04.09.05.14zM53.98 1.643v.05c0-.03-.01-.06-.01-.08 0 .01.01.02.01.03z"/><path d="M53.99 1.773c0-.03 0-.05-.01-.08 0-.03-.01-.06-.01-.08 0-.01 0-.02-.01-.03-.02-.07-.04-.13-.06-.19v-.01c-.03-.07-.07-.13-.11-.2-.03-.05-.07-.1-.11-.14-.04-.04-.08-.08-.13-.12-.02-.02-.04-.03-.06-.04-.08-.07-.16-.11-.25-.15h-.01c-.3-.11-.65-.11-.96 0 0 .01 0 .01-.01 0l-1.81.61c-8.57 2.94-13.28 4.55-23.43 4.55-10.18 0-14.93-1.62-23.55-4.57L1.74.733c-.01.01-.01.01-.01 0-.31-.11-.66-.11-.96 0H.76c-.07.03-.13.07-.2.11-.01 0-.01 0-.02.01-.06.04-.12.09-.17.15-.06.05-.11.11-.16.18-.05.07-.08.14-.11.21-.06.15-.1.32-.1.49 0 .06.01.11.01.17-.01-.02-.01-.04-.01-.07l.01 51.21c0 .42.21.82.56 1.05l25.76 16.92c.21.14.45.21.69.21.24 0 .48-.07.69-.21l25.72-16.92c.35-.24.56-.63.56-1.05L54 1.973v-.09c0-.04 0-.07-.01-.11zM2.13.993v.01c-.01-.02-.03-.03-.05-.05.02.01.04.02.05.04zm49.36 51.53l-24.47 16.1-24.51-16.1-.01-48.89.16.05c8.88 3.04 13.76 4.71 24.36 4.71 10.56 0 15.42-1.66 24.24-4.68l.24-.08-.01 48.89zm.38-51.52v-.01c.01-.02.03-.03.05-.04-.02.02-.04.03-.05.05z"/><path d="M0 1.883c0 .06.01.11.01.17-.01-.02-.01-.04-.01-.07v-.1zM1.5.663c.08.01.16.03.23.07-.31-.11-.66-.11-.96 0 .07-.03.14-.05.21-.07H1c.08-.02.16-.03.25-.03s.17.01.25.03zM53.23.733c-.3-.11-.65-.11-.96 0 .07-.04.15-.06.23-.07.08-.02.16-.03.25-.03s.17.01.25.03h.02c.07.02.14.04.21.07zM51.92.953c-.02.02-.04.03-.05.05v-.01c.01-.02.03-.03.05-.04zM53.68 1.043c-.04-.04-.08-.08-.13-.12.03.02.06.04.09.07l.02.02c.01.01.02.02.02.03zM53.96 1.583c-.02-.07-.04-.13-.06-.19.01.01.01.03.02.04.01.05.03.1.04.15zM53.98 1.643v.05c0-.03-.01-.06-.01-.08 0 .01.01.02.01.03z"/><path d="M.09 1.403c.01 0 .01-.01.01-.01-.06.15-.1.32-.1.49 0-.08.01-.16.02-.24.02-.08.04-.16.07-.24zM.41.953c.04-.04.09-.07.13-.1-.06.04-.12.09-.17.15-.06.05-.11.11-.16.18.03-.05.07-.1.11-.14.01-.01.01-.02.03-.03 0-.01 0-.01.01-.02s.01-.01.02-.01l.01-.01C.4.963.4.953.41.953zM2.13.993v.01c-.01-.02-.03-.03-.05-.05.02.01.04.02.05.04zM11.992 54.99c-.276 0-.553-.09-.782-.274-.473-.38-.605-1.042-.315-1.574L22.002 32.8h-8.025c-.49 0-.936-.287-1.138-.733-.204-.447-.126-.97.196-1.34l13.9-15.884c.236-.27.58-.427.94-.427h13.898c.484 0 .925.28 1.13.717.207.438.142.956-.166 1.33L34.5 26.434h7.274c.52 0 .987.322 1.17.81.184.488.045 1.038-.347 1.38L12.815 54.682c-.235.206-.53.31-.823.31zm4.74-24.69h7.377c.44 0 .85.232 1.074.612.225.38.233.85.022 1.237l-8.75 16.025 21.99-19.24h-6.6c-.484 0-.924-.28-1.13-.72-.207-.437-.142-.954.166-1.328l8.237-9.972H28.442L16.733 30.3z"/></g></svg>