<?xml version="1.0" encoding="UTF-8" standalone="no"?>
<svg width="68px" height="81px" viewBox="0 0 68 81" version="1.1" xmlns="http://www.w3.org/2000/svg" xmlns:xlink="http://www.w3.org/1999/xlink" xmlns:sketch="http://www.bohemiancoding.com/sketch/ns">
    <!-- Generator: Sketch 3.5.2 (25235) - http://www.bohemiancoding.com/sketch -->
    <title>Shape</title>
    <desc>Created with Sketch.</desc>
    <defs></defs>
    <g id="Page-1" stroke="none" stroke-width="1" fill="none" fill-rule="evenodd" sketch:type="MSPage">
        <path d="M67.8,65.384 C65.844,53.047 55.568,43.72 43.848,40.27 C48.884,34.69 51.564,25.593 51.574,19.425 C51.589,9.969 43.788,0.147 33.844,0.147 C23.902,0.147 16.101,9.969 16.116,19.425 C16.126,25.62 18.828,34.77 23.906,40.342 C12.29,43.85 2.143,53.132 0.2,65.384 C-0.604,70.458 5.318,73.826 9.15,75.551 C16.668,78.935 25.255,80.087 33.435,80.147 C41.715,80.207 50.37,79.137 58.051,75.899 C62.078,74.201 68.651,70.753 67.801,65.385 L67.8,65.384 Z" id="Shape" fill="#000000" sketch:type="MSShapeGroup"></path>
    </g>
</svg>