<svg xmlns="http://www.w3.org/2000/svg" xmlns:xlink="http://www.w3.org/1999/xlink" version="1.1" x="0px" y="0px" viewBox="0 0 100 100" enable-background="new 0 0 100 100" xml:space="preserve">
	<defs>
		<symbol id="icon-super">
			<path fill="#000000" d="M49.06,4.275c4.639,0,9.341-0.024,13.974-0.024h23.272c3.411,0,9.282-0.366,10.687,2.789  c1.626,3.655,0.524,4.666-4.677,11.794l-4.655,6.235l0.61,0.818c4.535,7.165,7.162,15.656,7.162,24.761  c0,25.607-20.766,46.373-46.373,46.373c-5.695,0-11.15-1.029-16.191-2.909c0,0-0.949-0.4-1.138-0.458l-5.414,3.191  c-5.49,3.236-11.172-1.234-9.226-7.856l1.129-3.84c-0.199-0.181-0.581-0.385-0.981-0.774C8.28,75.919,2.687,63.936,2.687,50.648  C2.687,25.041,23.453,4.275,49.06,4.275L49.06,4.275z M89.098,14.131c1.917-2.507,0.184-4.332-2.104-4.332H63.722  c-5.167,0-6.748,1.757-7.737,3.033L29.6,46.86c-2.659,3.429-0.464,6.282,1.826,6.282h5.632c3.992,0,4.237,3.647,3.066,5.594  L22.111,88.699c-1.962,3.263,0.979,5.277,3.423,3.215l54.022-45.578c2.424-2.307,0.064-4.428-1.635-4.428h-4.042  c-3.288,0-3.809-2.76-2.378-4.642L89.098,14.131L89.098,14.131z"></path>
		</symbol>
	</defs>
</svg>