<?xml version="1.0" encoding="UTF-8" standalone="no"?>
<!-- Created with Inkscape (http://www.inkscape.org/) -->
<svg
   xmlns:dc="http://purl.org/dc/elements/1.1/"
   xmlns:cc="http://creativecommons.org/ns#"
   xmlns:rdf="http://www.w3.org/1999/02/22-rdf-syntax-ns#"
   xmlns:svg="http://www.w3.org/2000/svg"
   xmlns="http://www.w3.org/2000/svg"
   xmlns:sodipodi="http://sodipodi.sourceforge.net/DTD/sodipodi-0.dtd"
   xmlns:inkscape="http://www.inkscape.org/namespaces/inkscape"
   version="1.0"
   width="410.979"
   height="185.991"
   viewBox="0 0 612 792"
   id="root"
   xml:space="preserve"
   sodipodi:version="0.32"
   inkscape:version="0.46"
   sodipodi:docname="MarvelLogo.svg"
   inkscape:output_extension="org.inkscape.output.svg.inkscape"><metadata
   id="metadata2488"><rdf:RDF><cc:Work
       rdf:about=""><dc:format>image/svg+xml</dc:format><dc:type
         rdf:resource="http://purl.org/dc/dcmitype/StillImage" /></cc:Work></rdf:RDF></metadata><sodipodi:namedview
   inkscape:window-height="943"
   inkscape:window-width="1280"
   inkscape:pageshadow="2"
   inkscape:pageopacity="0.0"
   guidetolerance="10.0"
   gridtolerance="10.0"
   objecttolerance="10.0"
   borderopacity="1.0"
   bordercolor="#666666"
   pagecolor="#ffffff"
   id="base"
   showgrid="false"
   inkscape:zoom="1.3236686"
   inkscape:cx="205.4895"
   inkscape:cy="92.995499"
   inkscape:window-x="-4"
   inkscape:window-y="-4"
   inkscape:current-layer="root" />
 Converted with TEXTCAFE (tm) http://www.texterity.com 
  <title
   id="title2418">Marvel Comics -- Page 1</title>
  <defs
   id="defs2420"><inkscape:perspective
   sodipodi:type="inkscape:persp3d"
   inkscape:vp_x="0 : 92.995499 : 1"
   inkscape:vp_y="0 : 1000 : 0"
   inkscape:vp_z="410.979 : 92.995499 : 1"
   inkscape:persp3d-origin="205.4895 : 61.996999 : 1"
   id="perspective2490" />
    <style
   type="text/css"
   id="style2422" />
    <clipPath
   id="id2">
      <rect
   width="612"
   height="792"
   x="0"
   y="0"
   id="rect2425" />
    </clipPath>
    <clipPath
   id="id3">
      <path
   d="M 0,792 L 612,792 L 612,0 L 0,0 L 0,792 z"
   id="path2428" />
    </clipPath>
  
    
  
      
    </defs>
  <defs
   id="defs2430" />
  
<g
   clip-path="url(#id3)"
   id="g2505"
   transform="matrix(4.2582706,0,0,-4.2582706,-977.60093,2103.7703)">
        <path
   d="M 508.58,305.914 L 97.601,305.914 L 97.601,491.905 L 508.58,491.905 L 508.58,305.914 z"
   id="path2507"
   style="fill:#f11e22;fill-rule:nonzero;stroke:none" />
        <path
   d="M 452.5,465.5 L 475.5,465.5 L 475.5,356.5 L 495,356.5 L 495,329 L 452.5,329 L 452.5,465.5 z"
   id="path2509"
   style="fill:#ffffff;fill-rule:nonzero;stroke:none" />
        
        
        <path
   d="M 294,400.5 C 310.5,401.5 309,422 309,422 C 306.5,442 294,441 294,441 L 294,400.5 z M 241,369 L 234,410.5 L 228,369 L 241,369 z M 114.5,329.5 L 114.5,465.5 L 145.5,465.5 L 156.5,408.5 L 169,465.5 L 199,465.5 L 199,343 L 218.5,465.5 L 249,465.5 L 268,343 L 268,465 L 308.5,465 C 308.5,465 322.5,462.5 329.5,443 L 326.5,465.5 L 351,465.5 L 362.5,395 L 374.5,465 L 443.5,465 L 443.5,439.5 L 423,439.5 L 423,411.5 L 442.5,411.5 L 442.5,383 L 423.5,383 L 423.5,357 L 443.5,357 L 443.5,329.5 L 399,329.5 L 399,460.5 L 376,329.5 L 348.5,329.5 L 334,416.5 C 334,416.5 331.5,392.5 318,381.5 L 335.5,329.5 L 311.5,329.5 L 294.5,375 L 294.5,329.5 L 246,329.5 L 243.5,342.5 L 225,342.5 L 221,329.5 L 175,329.5 L 175,379.5 L 163,329.5 L 150.5,329.5 L 139.5,379 L 139.5,330 L 114.5,329.5 z"
   id="path2515"
   style="fill:#ffffff;fill-rule:nonzero;stroke:none" />
      </g></svg>